<?xml version="1.0" encoding="utf-8"?>
<!-- Generator: Adobe Illustrator 25.4.1, SVG Export Plug-In . SVG Version: 6.00 Build 0)  -->
<svg version="1.1" id="Layer_1" xmlns="http://www.w3.org/2000/svg" xmlns:xlink="http://www.w3.org/1999/xlink" x="0px" y="0px"
	 viewBox="0 0 800 800" style="enable-background:new 0 0 800 800;" xml:space="preserve">
<style type="text/css">
	.st0{fill:#DA282E;}
	.st1{fill:#FFE1B6;}
	.st2{fill:#FFFFFF;}
	.st3{fill:#388140;}
</style>
<g id="Default_Bottle">
	<path class="st0" d="M445.68,142.77v119.96c29.16,0.97,48.86,11.77,62.06,24.61c16.65,16.19,25.4,38.87,25.42,62.1l0.12,241.06
		c0.01,20.22-16.38,36.63-36.6,36.63l-90.86,0.01l-2.57-484.52L445.68,142.77z"/>
	<path class="st0" d="M366.12,142.77v119.96c-30.33,0.97-50.83,11.77-64.56,24.61c-17.32,16.19-26.42,38.87-26.44,62.1l-0.12,234.65
		c-0.01,23.77,19.25,43.04,43.02,43.04l89.57,0.01l3.38-484.52L366.12,142.77z"/>
	<rect x="361.7" y="141.74" class="st1" width="88.38" height="60.52"/>
	<path class="st2" d="M502.56,577.74H308.17c-2.83,0-5.13-2.3-5.13-5.13v-218.9c0-2.83,2.3-5.13,5.13-5.13h194.39
		c2.83,0,5.13,2.3,5.13,5.13v218.9C507.7,575.44,505.4,577.74,502.56,577.74z"/>
</g>
<g id="ketchup">
	<ellipse class="st0" cx="407.57" cy="474.96" rx="60.67" ry="56.59"/>
	<path class="st3" d="M401.13,434.57c7.18,23.94,16.76,0,16.76,0c23.94,0,19.15-17.56,19.15-17.56h-20.75v-28.73h-15.16v29.53
		V434.57z"/>
	<path class="st3" d="M416.06,434.76c-7.34,23.94-17.12,0-17.12,0c-24.46,0-19.56-17.56-19.56-17.56h21.2v-28.73h15.49V418V434.76z"
		/>
</g>
</svg>
