<?xml version="1.0" encoding="utf-8"?>
<!-- Generator: Adobe Illustrator 25.4.1, SVG Export Plug-In . SVG Version: 6.00 Build 0)  -->
<svg version="1.1" id="Layer_1" xmlns="http://www.w3.org/2000/svg" xmlns:xlink="http://www.w3.org/1999/xlink" x="0px" y="0px"
	 viewBox="0 0 800 800" style="enable-background:new 0 0 800 800;" xml:space="preserve">
<style type="text/css">
	.st0{display:none;}
	.st1{display:inline;fill:#9694C9;}
	.st2{display:inline;fill:#5262AA;}
	.st3{display:inline;fill:#DA282E;}
	.st4{display:inline;fill:#388140;}
	.st5{display:inline;fill:#EF9A46;}
	.st6{display:inline;fill:#E8E8E8;}
	.st7{fill:#BD3537;}
	.st8{fill:#E0A2A1;}
</style>
<g id="Default_Bottle" class="st0">
	<path class="st1" d="M445.68,142.77v119.96c29.16,0.97,48.86,11.77,62.06,24.61c16.65,16.19,25.4,38.87,25.42,62.1l0.12,241.06
		c0.01,20.22-16.38,36.63-36.6,36.63l-90.86,0.01l-2.57-484.52L445.68,142.77z"/>
	<path class="st1" d="M366.12,142.77v119.96c-30.33,0.97-50.83,11.77-64.56,24.61c-17.32,16.19-26.42,38.87-26.44,62.1l-0.12,234.65
		c-0.01,23.77,19.25,43.04,43.02,43.04l89.57,0.01l3.38-484.52L366.12,142.77z"/>
	<rect x="361.7" y="141.74" class="st2" width="88.38" height="60.52"/>
	<path class="st2" d="M502.56,577.74H308.17c-2.83,0-5.13-2.3-5.13-5.13v-218.9c0-2.83,2.3-5.13,5.13-5.13h194.39
		c2.83,0,5.13,2.3,5.13,5.13v218.9C507.7,575.44,505.4,577.74,502.56,577.74z"/>
</g>
<g id="ketchup" class="st0">
	<ellipse class="st3" cx="407.57" cy="474.96" rx="60.67" ry="56.59"/>
	<path class="st4" d="M401.13,434.57c7.18,23.94,16.76,0,16.76,0c23.94,0,19.15-17.56,19.15-17.56h-20.75v-28.73h-15.16v29.53
		V434.57z"/>
	<path class="st4" d="M416.06,434.76c-7.34,23.94-17.12,0-17.12,0c-24.46,0-19.56-17.56-19.56-17.56h21.2v-28.73h15.49V418V434.76z"
		/>
</g>
<g id="spicy" class="st0">
	<ellipse class="st3" cx="403.38" cy="490.67" rx="60.04" ry="49.39"/>
	<path class="st3" d="M459.49,497.81l-55.71-93.45l-44.62,49.09c-29.11,32.03-7.28,59.31,47.62,59.5l39.68,0.14
		C456.11,513.14,463.48,504.5,459.49,497.81z"/>
	<path class="st3" d="M431.45,428.09l18.69-15.68l11.53,82.04l-30.11-24.98C418.61,458.74,418.56,438.9,431.45,428.09z"/>
	<ellipse class="st5" cx="404.49" cy="498.33" rx="41.54" ry="35.37"/>
	<path class="st5" d="M434.14,516.79l-24.76-72.61l-33.29,28.13c-21.72,18.35-11,40.31,23.38,47.88l24.85,5.48
		C430.36,527,435.91,521.99,434.14,516.79z"/>
	<path class="st5" d="M426.57,447.54l20.12-8.98l-1.4,66.83l-24.85-25.17C409.77,469.4,412.7,453.73,426.57,447.54z"/>
</g>
<g id="garlic_mayo" class="st0">
	<rect x="393.58" y="408.75" class="st6" width="25.36" height="47.54"/>
	<ellipse class="st6" cx="404.56" cy="482.49" rx="55.49" ry="41.72"/>
</g>
<g id="pepperoni">
	<ellipse class="st7" cx="408.17" cy="400.66" rx="177.56" ry="160.2"/>
	<path class="st8" d="M350.02,312.68l-24.01,19.95c-2.41,2-6.02,1.67-8.03-0.74l-0.78-0.94c-2-2.41-1.67-6.02,0.74-8.03l24.01-19.95
		c2.41-2,6.02-1.67,8.03,0.74l0.78,0.94C352.77,307.06,352.43,310.67,350.02,312.68z"/>
	<path class="st8" d="M454.25,301.14l-24.01,19.95c-2.41,2-6.02,1.67-8.03-0.74l-0.78-0.94c-2-2.41-1.67-6.02,0.74-8.03l24.01-19.95
		c2.41-2,6.02-1.67,8.03,0.74l0.78,0.94C456.99,295.53,456.66,299.14,454.25,301.14z"/>
	<path class="st8" d="M310.1,394.61l-24.01,19.95c-2.41,2-6.02,1.67-8.03-0.74l-0.78-0.94c-2-2.41-1.67-6.02,0.74-8.03l24.01-19.95
		c2.41-2,6.02-1.67,8.03,0.74l0.78,0.94C312.84,389,312.51,392.61,310.1,394.61z"/>
	<path class="st8" d="M409.44,386.69l-24.01,19.95c-2.41,2-6.02,1.67-8.03-0.74l-0.78-0.94c-2-2.41-1.67-6.02,0.74-8.03l24.01-19.95
		c2.41-2,6.02-1.67,8.03,0.74l0.78,0.94C412.18,381.08,411.85,384.69,409.44,386.69z"/>
	<path class="st8" d="M389.28,467.32l-24.01,19.95c-2.41,2-6.02,1.67-8.03-0.74l-0.78-0.94c-2-2.41-1.67-6.02,0.74-8.03l24.01-19.95
		c2.41-2,6.02-1.67,8.03,0.74l0.78,0.94C392.03,461.7,391.69,465.32,389.28,467.32z"/>
	<path class="st8" d="M495.1,361.5l-24.01,19.95c-2.41,2-6.02,1.67-8.03-0.74l-0.78-0.94c-2-2.41-1.67-6.02,0.74-8.03l24.01-19.95
		c2.41-2,6.02-1.67,8.03,0.74l0.78,0.94C497.85,355.88,497.51,359.49,495.1,361.5z"/>
	<path class="st8" d="M480.7,439.96l-24.01,19.95c-2.41,2-6.02,1.67-8.03-0.74l-0.78-0.94c-2-2.41-1.67-6.02,0.74-8.03l24.01-19.95
		c2.41-2,6.02-1.67,8.03,0.74l0.78,0.94C483.45,434.35,483.12,437.96,480.7,439.96z"/>
</g>
</svg>
