<?xml version="1.0" encoding="utf-8"?>
<!-- Generator: Adobe Illustrator 25.4.1, SVG Export Plug-In . SVG Version: 6.00 Build 0)  -->
<svg version="1.1" id="Layer_1" xmlns="http://www.w3.org/2000/svg" xmlns:xlink="http://www.w3.org/1999/xlink" x="0px" y="0px"
	 viewBox="0 0 800 800" style="enable-background:new 0 0 800 800;" xml:space="preserve">
<style type="text/css">
	.st0{display:none;}
	.st1{display:inline;fill:#9694C9;}
	.st2{display:inline;fill:#5262AA;}
	.st3{display:inline;fill:#DA282E;}
	.st4{display:inline;fill:#388140;}
	.st5{display:inline;fill:#EF9A46;}
	.st6{display:inline;fill:#E8E8E8;}
	.st7{display:inline;fill:#BD3537;}
	.st8{display:inline;fill:#E0A2A1;}
	.st9{display:inline;fill:#F19A34;}
	.st10{display:inline;fill:#F4B765;}
	.st11{display:inline;fill:#FFFFFF;}
	.st12{fill:#F05430;}
	.st13{fill:#F37756;}
	.st14{fill:#FDCA8D;}
	.st15{fill:#F68B6D;}
</style>
<g id="Default_Bottle" class="st0">
	<path class="st1" d="M445.68,142.77v119.96c29.16,0.97,48.86,11.77,62.06,24.61c16.65,16.19,25.4,38.87,25.42,62.1l0.12,241.06
		c0.01,20.22-16.38,36.63-36.6,36.63l-90.86,0.01l-2.57-484.52L445.68,142.77z"/>
	<path class="st1" d="M366.12,142.77v119.96c-30.33,0.97-50.83,11.77-64.56,24.61c-17.32,16.19-26.42,38.87-26.44,62.1l-0.12,234.65
		c-0.01,23.77,19.25,43.04,43.02,43.04l89.57,0.01l3.38-484.52L366.12,142.77z"/>
	<rect x="361.7" y="141.74" class="st2" width="88.38" height="60.52"/>
	<path class="st2" d="M502.56,577.74H308.17c-2.83,0-5.13-2.3-5.13-5.13v-218.9c0-2.83,2.3-5.13,5.13-5.13h194.39
		c2.83,0,5.13,2.3,5.13,5.13v218.9C507.7,575.44,505.4,577.74,502.56,577.74z"/>
</g>
<g id="ketchup" class="st0">
	<ellipse class="st3" cx="407.57" cy="474.96" rx="60.67" ry="56.59"/>
	<path class="st4" d="M401.13,434.57c7.18,23.94,16.76,0,16.76,0c23.94,0,19.15-17.56,19.15-17.56h-20.75v-28.73h-15.16v29.53
		V434.57z"/>
	<path class="st4" d="M416.06,434.76c-7.34,23.94-17.12,0-17.12,0c-24.46,0-19.56-17.56-19.56-17.56h21.2v-28.73h15.49V418V434.76z"
		/>
</g>
<g id="spicy" class="st0">
	<ellipse class="st3" cx="403.38" cy="490.67" rx="60.04" ry="49.39"/>
	<path class="st3" d="M459.49,497.81l-55.71-93.45l-44.62,49.09c-29.11,32.03-7.28,59.31,47.62,59.5l39.68,0.14
		C456.11,513.14,463.48,504.5,459.49,497.81z"/>
	<path class="st3" d="M431.45,428.09l18.69-15.68l11.53,82.04l-30.11-24.98C418.61,458.74,418.56,438.9,431.45,428.09z"/>
	<ellipse class="st5" cx="404.49" cy="498.33" rx="41.54" ry="35.37"/>
	<path class="st5" d="M434.14,516.79l-24.76-72.61l-33.29,28.13c-21.72,18.35-11,40.31,23.38,47.88l24.85,5.48
		C430.36,527,435.91,521.99,434.14,516.79z"/>
	<path class="st5" d="M426.57,447.54l20.12-8.98l-1.4,66.83l-24.85-25.17C409.77,469.4,412.7,453.73,426.57,447.54z"/>
</g>
<g id="garlic_mayo" class="st0">
	<rect x="393.58" y="408.75" class="st6" width="25.36" height="47.54"/>
	<ellipse class="st6" cx="404.56" cy="482.49" rx="55.49" ry="41.72"/>
</g>
<g id="pepperoni" class="st0">
	<ellipse class="st7" cx="408.17" cy="400.66" rx="177.56" ry="160.2"/>
	<path class="st8" d="M350.02,312.68l-24.01,19.95c-2.41,2-6.02,1.67-8.03-0.74l-0.78-0.94c-2-2.41-1.67-6.02,0.74-8.03l24.01-19.95
		c2.41-2,6.02-1.67,8.03,0.74l0.78,0.94C352.77,307.06,352.43,310.67,350.02,312.68z"/>
	<path class="st8" d="M454.25,301.14l-24.01,19.95c-2.41,2-6.02,1.67-8.03-0.74l-0.78-0.94c-2-2.41-1.67-6.02,0.74-8.03l24.01-19.95
		c2.41-2,6.02-1.67,8.03,0.74l0.78,0.94C456.99,295.53,456.66,299.14,454.25,301.14z"/>
	<path class="st8" d="M310.1,394.61l-24.01,19.95c-2.41,2-6.02,1.67-8.03-0.74l-0.78-0.94c-2-2.41-1.67-6.02,0.74-8.03l24.01-19.95
		c2.41-2,6.02-1.67,8.03,0.74l0.78,0.94C312.84,389,312.51,392.61,310.1,394.61z"/>
	<path class="st8" d="M409.44,386.69l-24.01,19.95c-2.41,2-6.02,1.67-8.03-0.74l-0.78-0.94c-2-2.41-1.67-6.02,0.74-8.03l24.01-19.95
		c2.41-2,6.02-1.67,8.03,0.74l0.78,0.94C412.18,381.08,411.85,384.69,409.44,386.69z"/>
	<path class="st8" d="M389.28,467.32l-24.01,19.95c-2.41,2-6.02,1.67-8.03-0.74l-0.78-0.94c-2-2.41-1.67-6.02,0.74-8.03l24.01-19.95
		c2.41-2,6.02-1.67,8.03,0.74l0.78,0.94C392.03,461.7,391.69,465.32,389.28,467.32z"/>
	<path class="st8" d="M495.1,361.5l-24.01,19.95c-2.41,2-6.02,1.67-8.03-0.74l-0.78-0.94c-2-2.41-1.67-6.02,0.74-8.03l24.01-19.95
		c2.41-2,6.02-1.67,8.03,0.74l0.78,0.94C497.85,355.88,497.51,359.49,495.1,361.5z"/>
	<path class="st8" d="M480.7,439.96l-24.01,19.95c-2.41,2-6.02,1.67-8.03-0.74l-0.78-0.94c-2-2.41-1.67-6.02,0.74-8.03l24.01-19.95
		c2.41-2,6.02-1.67,8.03,0.74l0.78,0.94C483.45,434.35,483.12,437.96,480.7,439.96z"/>
</g>
<g id="cheese" class="st0">
	<path class="st9" d="M222.97,257.75v203.4c0,0,238.33,61.64,320.51,59.58c0,0,36.98-34.93,28.76-145.87
		C572.24,374.86,227.08,286.52,222.97,257.75z"/>
	<path class="st10" d="M228.15,246.96l111.27-61.87c3.99-2.22,8.77-1.86,12.52,0.94c35.65,26.65,216.43,162.73,222.11,186.01
		c5.23,21.43-255.07-68.48-343.79-99.7C219.59,268.59,218.26,252.46,228.15,246.96z"/>
	<ellipse class="st11" cx="233.24" cy="348.15" rx="35.95" ry="32.87"/>
	<ellipse class="st11" cx="429.45" cy="463.21" rx="17.46" ry="15.41"/>
	<circle class="st11" cx="502.39" cy="405.68" r="22.6"/>
	<ellipse class="st11" cx="323.64" cy="413.9" rx="42.12" ry="39.04"/>
	<ellipse class="st11" cx="424.32" cy="382.05" rx="20.55" ry="19.52"/>
</g>
<g id="tomato">
	<ellipse class="st12" cx="416.25" cy="409.98" rx="198.89" ry="194.76"/>
	<path class="st13" d="M427.22,407.23l125.16-113.1c0,0,91.29,119.96-3.11,234.19L427.22,407.23z"/>
	<path class="st13" d="M417.79,414.09l114.95,123.46c0,0-118.59,93.07-234.21,0.37L417.79,414.09z"/>
	<path class="st13" d="M415.94,396.51L297.86,277.63c0,0,123.81-86.76,242.86,2.89L415.94,396.51z"/>
	<path class="st13" d="M405.9,408.59L286.65,527.89c0,0-97.26-115.17-8.78-234.05L405.9,408.59z"/>
	<path class="st14" d="M565.5,417.31h-31.58c-1.53,0-2.78-1.25-2.78-2.78v-5.85c0-1.53,1.25-2.78,2.78-2.78h31.58
		c1.53,0,2.78,1.25,2.78,2.78v5.85C568.28,416.06,567.03,417.31,565.5,417.31z"/>
	<path class="st14" d="M550.98,354.87l-27.35,15.79c-1.32,0.76-3.03,0.31-3.79-1.02l-2.93-5.07c-0.76-1.32-0.31-3.03,1.02-3.79
		l27.35-15.79c1.32-0.76,3.03-0.31,3.79,1.02l2.93,5.07C552.76,352.4,552.3,354.1,550.98,354.87z"/>
	<path class="st14" d="M552.3,475.53l-28.69-13.2c-1.39-0.64-2-2.3-1.36-3.68l2.45-5.32c0.64-1.39,2.3-2,3.68-1.36l28.69,13.2
		c1.39,0.64,2,2.3,1.36,3.68l-2.45,5.32C555.34,475.56,553.68,476.17,552.3,475.53z"/>
	<path class="st14" d="M422.26,255.23l1.22,31.56c0.06,1.53-1.14,2.82-2.67,2.88l-5.85,0.23c-1.53,0.06-2.82-1.14-2.88-2.67
		l-1.22-31.56c-0.06-1.53,1.14-2.82,2.67-2.88l5.85-0.23C420.9,252.5,422.2,253.7,422.26,255.23z"/>
	<path class="st14" d="M490.8,281.75l-22.33,22.33c-1.08,1.08-2.85,1.08-3.93,0l-4.14-4.14c-1.08-1.08-1.08-2.85,0-3.93l22.33-22.33
		c1.08-1.08,2.85-1.08,3.93,0l4.14,4.14C491.88,278.9,491.88,280.67,490.8,281.75z"/>
	<path class="st14" d="M369.24,308.29l-22.33-22.33c-1.08-1.08-1.08-2.85,0-3.93l4.14-4.14c1.08-1.08,2.85-1.08,3.93,0l22.33,22.33
		c1.08,1.08,1.08,2.85,0,3.93l-4.14,4.14C372.08,309.37,370.32,309.37,369.24,308.29z"/>
	<path class="st14" d="M408.79,555.36l0.97-31.57c0.05-1.53,1.33-2.74,2.86-2.69l5.85,0.18c1.53,0.05,2.74,1.33,2.69,2.86
		l-0.97,31.57c-0.05,1.53-1.33,2.74-2.86,2.69l-5.85-0.18C409.96,558.17,408.75,556.88,408.79,555.36z"/>
	<path class="st14" d="M342.26,524.13l23.83-20.72c1.15-1,2.92-0.88,3.92,0.27l3.84,4.42c1,1.15,0.88,2.92-0.27,3.92l-23.83,20.72
		c-1.15,1-2.92,0.88-3.92-0.27l-3.84-4.42C340.99,526.9,341.11,525.14,342.26,524.13z"/>
	<path class="st14" d="M465.38,506.11l20.72,23.83c1,1.15,0.88,2.92-0.27,3.92l-4.42,3.84c-1.15,1-2.92,0.88-3.92-0.27l-20.72-23.83
		c-1-1.15-0.88-2.92,0.27-3.92l4.42-3.84C462.61,504.84,464.37,504.96,465.38,506.11z"/>
	<path class="st14" d="M258.17,402.47l31.55-1.4c1.53-0.07,2.83,1.13,2.9,2.65l0.26,5.85c0.07,1.53-1.13,2.83-2.65,2.9l-31.55,1.4
		c-1.53,0.07-2.83-1.13-2.9-2.65l-0.26-5.85C255.45,403.84,256.64,402.54,258.17,402.47z"/>
	<path class="st14" d="M284.31,333.78l22.45,22.21c1.09,1.07,1.1,2.84,0.02,3.93l-4.12,4.16c-1.07,1.09-2.84,1.1-3.93,0.02
		l-22.45-22.21c-1.09-1.07-1.1-2.84-0.02-3.93l4.12-4.16C281.46,332.72,283.23,332.71,284.31,333.78z"/>
	<path class="st14" d="M311.51,455.2l-22.21,22.45c-1.07,1.09-2.84,1.1-3.93,0.02l-4.16-4.12c-1.09-1.07-1.1-2.84-0.02-3.93
		l22.21-22.45c1.07-1.09,2.84-1.1,3.93-0.02l4.16,4.12C312.58,452.35,312.59,454.11,311.51,455.2z"/>
	<path class="st15" d="M439.03,396.5c0,0,24.38,10.93,0,22.7l-11.81-11.96L439.03,396.5z"/>
	<path class="st15" d="M405.3,384.67c0,0,11.66-24.04,22.69,0.68l-12.31,11.45L405.3,384.67z"/>
	<path class="st15" d="M428.79,425.52c0,0-10.45,24.59-22.7,0.44l11.73-12.04L428.79,425.52z"/>
	<path class="st15" d="M394.44,420.08c0,0-25.1-9.16-1.62-22.64l12.63,11.09L394.44,420.08z"/>
</g>
</svg>
